<?xml version="1.0" standalone="no"?>
<!DOCTYPE svg PUBLIC "-//W3C//DTD SVG 20010904//EN"
 "http://www.w3.org/TR/2001/REC-SVG-20010904/DTD/svg10.dtd">
<svg version="1.0" xmlns="http://www.w3.org/2000/svg"
 width="500.000000pt" height="500.000000pt" viewBox="0 0 500.000000 500.000000"
 preserveAspectRatio="xMidYMid meet">

<g transform="translate(0.000000,500.000000) scale(0.100000,-0.100000)"
fill="#000000" stroke="none">
<path d="M1096 4130 c-63 -20 -103 -88 -143 -239 -22 -82 -26 -118 -26 -246 0
-108 4 -165 15 -205 l16 -54 -96 -101 c-210 -219 -338 -458 -383 -715 -18
-102 -15 -305 5 -412 98 -517 528 -962 1141 -1181 552 -198 1178 -198 1730 0
608 217 1031 650 1142 1167 21 98 23 338 4 436 -51 261 -193 522 -393 722
l-76 76 15 49 c9 29 17 102 20 183 4 110 1 153 -15 230 -48 229 -104 300 -234
300 -175 -1 -424 -111 -576 -254 l-65 -62 -156 32 c-365 74 -752 71 -1108 -9
l-102 -23 -48 49 c-139 142 -377 254 -558 263 -44 2 -93 -1 -109 -6z m192
-136 c89 -22 232 -90 309 -147 34 -26 86 -75 115 -111 l52 -64 46 14 c85 27
265 63 400 80 159 20 468 15 643 -10 87 -12 254 -50 362 -81 15 -5 24 1 37 23
46 77 182 187 302 243 80 38 214 71 268 67 42 -3 43 -4 66 -62 62 -155 69
-397 17 -533 l-27 -73 110 -107 c133 -131 217 -243 282 -377 185 -380 153
-770 -91 -1126 -468 -683 -1594 -965 -2516 -630 -305 111 -587 297 -764 503
-408 476 -405 1070 8 1539 38 42 100 105 140 139 l72 62 -16 36 c-64 147 -69
344 -13 524 36 115 57 125 198 91z"/>
<path d="M1765 2812 c-11 -2 -30 -13 -42 -24 -63 -59 -17 -158 73 -158 33 0
84 51 84 84 0 63 -55 111 -115 98z"/>
<path d="M3103 2805 c-37 -16 -53 -42 -53 -87 1 -79 87 -115 149 -62 53 44 40
123 -24 150 -40 16 -32 17 -72 -1z"/>
<path d="M980 2690 c-11 -11 -20 -29 -20 -41 0 -45 18 -58 147 -98 140 -45
168 -43 187 11 18 50 -8 69 -145 111 -68 20 -130 37 -136 37 -7 0 -22 -9 -33
-20z"/>
<path d="M3785 2673 c-60 -19 -118 -42 -127 -51 -21 -18 -23 -61 -5 -86 19
-25 60 -22 177 13 104 32 150 61 150 97 0 21 -46 64 -67 63 -10 0 -67 -17
-128 -36z"/>
<path d="M2431 2559 c-90 -17 -92 -44 -11 -136 93 -104 93 -104 176 3 51 67
56 78 46 99 -18 40 -107 55 -211 34z"/>
<path d="M930 2390 c-27 -27 -25 -56 5 -85 23 -24 29 -25 153 -25 109 0 133 3
150 18 30 25 33 70 6 96 -12 13 -41 16 -155 16 -126 0 -141 -2 -159 -20z"/>
<path d="M3687 2392 c-25 -28 -21 -67 9 -91 24 -19 40 -21 155 -21 116 0 131
2 149 20 25 25 26 72 2 93 -15 14 -42 17 -159 17 -123 0 -142 -2 -156 -18z"/>
<path d="M2472 2294 c-20 -14 -22 -23 -22 -107 0 -99 -4 -111 -64 -175 -45
-49 -81 -65 -150 -64 -72 0 -140 24 -218 75 -75 50 -116 49 -136 -3 -15 -39 2
-67 69 -110 72 -47 144 -75 231 -91 110 -20 224 22 310 114 l37 39 43 -36 c95
-82 223 -119 331 -97 119 24 270 127 270 184 0 34 -29 67 -58 67 -12 0 -46
-18 -76 -41 -91 -68 -126 -83 -204 -83 -82 -1 -124 18 -201 87 l-49 45 -5 85
c-5 64 -11 91 -25 107 -22 24 -52 26 -83 4z"/>
<path d="M1097 2128 c-127 -43 -146 -59 -133 -113 13 -50 47 -51 188 -5 126
40 148 54 148 95 0 22 -45 65 -67 64 -10 0 -71 -19 -136 -41z"/>
<path d="M3660 2150 c-25 -25 -26 -72 -2 -92 9 -8 72 -32 139 -52 131 -39 150
-39 174 5 8 15 8 28 -1 50 -11 26 -26 33 -136 69 -68 22 -130 40 -139 40 -8 0
-24 -9 -35 -20z"/>
</g>
</svg>
